<?xml version="1.0" encoding="utf-8"?>
<!-- Generator: Adobe Illustrator 16.0.0, SVG Export Plug-In . SVG Version: 6.00 Build 0)  -->
<!DOCTYPE svg PUBLIC "-//W3C//DTD SVG 1.1//EN" "http://www.w3.org/Graphics/SVG/1.1/DTD/svg11.dtd">
<svg version="1.1" id="Layer_1" xmlns="http://www.w3.org/2000/svg" xmlns:xlink="http://www.w3.org/1999/xlink" x="0px" y="0px"
	 width="11.002px" height="25px" viewBox="0 0 11.002 25" enable-background="new 0 0 11.002 25" xml:space="preserve">
<g id="Shape_31">
	<g>
		<path fill-rule="evenodd" clip-rule="evenodd" fill="#333333" d="M10.902,13.556c-0.045-0.781-0.313-1.461-0.825-2.081
			c-0.73-0.885-1.395-1.819-2.106-2.719C7.727,8.448,7.584,8.133,7.558,7.74c-0.04-0.599-0.509-0.995-1.131-0.998
			c-1.23-0.005-2.461-0.004-3.691,0C2.111,6.744,1.68,7.1,1.604,7.705c-0.203,1.619-0.39,3.24-0.582,4.86
			c-0.23,1.944-0.46,3.889-0.69,5.833c-0.106,0.896-0.213,1.791-0.317,2.688c-0.063,0.535,0.093,1,0.542,1.327
			c1.095,0.795,2.199,1.578,3.307,2.357c0.429,0.303,0.994,0.307,1.422,0.006c1.115-0.784,2.227-1.573,3.329-2.375
			c0.398-0.29,0.589-0.71,0.535-1.189c-0.172-1.555-0.366-3.106-0.55-4.66c-0.053-0.455-0.1-0.909-0.153-1.398
			c0.517,0.09,0.991,0.177,1.466,0.255c0.649,0.107,1.156-0.36,1.084-0.994C10.962,14.128,10.919,13.843,10.902,13.556z
			 M7.784,21.561c-1.006,0.735-2.025,1.453-3.036,2.181c-0.124,0.089-0.212,0.092-0.339,0.001c-1.011-0.729-2.031-1.443-3.035-2.182
			c-0.105-0.077-0.18-0.278-0.166-0.412c0.11-1.069,0.245-2.137,0.371-3.204c0.19-1.611,0.38-3.223,0.571-4.834
			c0.204-1.726,0.408-3.45,0.617-5.208c1.215,0,2.402,0,3.616,0c0.08,0.653,0.159,1.299,0.236,1.944
			c0.253,2.136,0.507,4.271,0.758,6.407c0.194,1.649,0.39,3.299,0.569,4.95C7.96,21.318,7.88,21.49,7.784,21.561z M8.409,13.967
			c-0.048-0.01-0.113-0.081-0.119-0.13c-0.126-1.027-0.244-2.055-0.362-3.083c-0.001-0.014,0.018-0.029,0.046-0.074
			c0.272,0.354,0.535,0.694,0.799,1.036c0.118,0.154,0.219,0.325,0.357,0.459c0.581,0.563,0.56,1.293,0.641,2.043
			C9.296,14.132,8.852,14.055,8.409,13.967z M1.595,5.902c0.135,0.362,0.409,0.563,0.811,0.564c1.449,0.004,2.898,0.004,4.348,0
			c0.391-0.001,0.668-0.194,0.798-0.542C7.957,4.844,8.35,3.759,8.743,2.673c0.116-0.32,0.062-0.622-0.135-0.903
			C8.31,1.339,8.013,0.908,7.718,0.476C7.498,0.153,7.2-0.006,6.794,0C6.06,0.009,5.325,0.002,4.591,0.002c0,0,0,0,0-0.001
			C3.837,0.001,3.082,0.004,2.328,0C1.961-0.002,1.675,0.139,1.471,0.432C1.155,0.886,0.841,1.34,0.529,1.796
			c-0.188,0.274-0.226,0.57-0.113,0.88C0.808,3.752,1.198,4.828,1.595,5.902z M1.67,2.222c0.223-0.351,0.396-0.813,0.729-0.993
			C2.726,1.051,3.222,1.16,3.645,1.15C3.952,1.145,4.26,1.149,4.567,1.149c0.645,0,1.289,0.006,1.934-0.004
			c0.178-0.002,0.292,0.042,0.388,0.193c0.186,0.295,0.405,0.569,0.584,0.867c0.059,0.098,0.079,0.256,0.042,0.362
			C7.216,3.422,6.896,4.268,6.594,5.119C6.539,5.271,6.465,5.327,6.297,5.326C5.156,5.32,4.016,5.32,2.875,5.327
			c-0.177,0.001-0.261-0.055-0.319-0.22C2.253,4.256,1.932,3.411,1.632,2.559C1.597,2.46,1.614,2.311,1.67,2.222z"/>
	</g>
</g>
</svg>
