<?xml version="1.0" encoding="utf-8"?>
<!-- Generator: Adobe Illustrator 16.0.0, SVG Export Plug-In . SVG Version: 6.00 Build 0)  -->
<!DOCTYPE svg PUBLIC "-//W3C//DTD SVG 1.1//EN" "http://www.w3.org/Graphics/SVG/1.1/DTD/svg11.dtd">
<svg version="1.1" id="Layer_1" xmlns="http://www.w3.org/2000/svg" xmlns:xlink="http://www.w3.org/1999/xlink" x="0px" y="0px"
	 width="20px" height="20px" viewBox="0 0 20 20" enable-background="new 0 0 20 20" xml:space="preserve">
<g id="Shape_29">
	<g>
		<path fill="#333333" d="M19.938,16.763c-1.496-3.152-3.815-3.822-3.913-3.851l-1.338-0.021c-0.947,0-1.719-0.771-1.719-1.719
			v-0.533c0.456-0.587,0.812-1.271,1.068-2.083l0.103-0.095c0.652-0.652,0.777-1.735,0.305-2.488
			c-0.014-0.024-0.026-0.048-0.045-0.074L14.4,5.403c0-0.483,0.001-0.966-0.002-1.458c-0.024-1.095-0.383-2.061-1.008-2.722
			c-0.528-0.559-1.261-0.939-2.115-1.102c-0.954-0.183-1.933-0.159-2.821,0.066C7.546,0.417,6.75,0.96,6.274,1.672
			c-0.403,0.59-0.635,1.345-0.67,2.199c-0.007,0.45-0.007,0.9-0.005,1.351l0.004,0.673C5.565,5.951,5.532,6.004,5.52,6.032
			C5.068,6.851,5.246,7.904,5.961,8.553l0.044,0.14c0.218,0.681,0.563,1.326,1.026,1.922v0.558c0,0.946-0.771,1.719-1.719,1.719
			H4.141l-0.166,0.021c-0.098,0.028-2.417,0.698-3.914,3.851L0,18.204C0,19.195,0.806,20,1.797,20h16.406
			C19.194,20,20,19.195,20,18.204v-1.172L19.938,16.763z M18.75,18.204c0,0.302-0.245,0.547-0.547,0.547H1.797
			c-0.302,0-0.547-0.245-0.547-0.547v-1.029c1.113-2.252,2.646-2.91,2.989-3.033h1.073c1.637,0,2.969-1.332,2.969-2.969v-1.005
			L8.136,9.994c-0.434-0.52-0.751-1.086-0.962-1.75C7.128,8.086,7.041,7.794,6.797,7.627C6.524,7.404,6.441,6.95,6.647,6.58
			c0.077-0.11,0.236-0.342,0.202-0.595V5.22C6.848,4.777,6.848,4.333,6.853,3.908C6.88,3.303,7.036,2.774,7.31,2.373
			C7.619,1.909,8.148,1.555,8.761,1.4c0.714-0.181,1.503-0.2,2.28-0.051c0.416,0.079,1.004,0.271,1.441,0.733
			c0.412,0.435,0.648,1.105,0.666,1.881c0.003,0.479,0.002,0.958,0.002,1.438v0.589c-0.015,0.288,0.131,0.49,0.218,0.615
			c0.182,0.292,0.132,0.728-0.156,1.013c-0.1,0.085-0.306,0.263-0.345,0.504c-0.22,0.727-0.557,1.364-1.002,1.893l-0.146,0.175
			v0.982c0,1.637,1.332,2.969,2.969,2.969h1.073c0.339,0.122,1.875,0.781,2.989,3.033V18.204z"/>
	</g>
</g>
</svg>
