<?xml version="1.0" encoding="utf-8"?>
<!-- Generator: Adobe Illustrator 16.0.0, SVG Export Plug-In . SVG Version: 6.00 Build 0)  -->
<!DOCTYPE svg PUBLIC "-//W3C//DTD SVG 1.1//EN" "http://www.w3.org/Graphics/SVG/1.1/DTD/svg11.dtd">
<svg version="1.1" id="Layer_1" xmlns="http://www.w3.org/2000/svg" xmlns:xlink="http://www.w3.org/1999/xlink" x="0px" y="0px"
	 width="22.001px" height="20.999px" viewBox="0 0 22.001 20.999" enable-background="new 0 0 22.001 20.999" xml:space="preserve">
<g id="Shape_30">
	<g>
		<path fill="#333333" d="M21.357,11.753c0.029-0.022,0.056-0.052,0.08-0.079c0.402-0.452,0.632-0.975,0.545-1.586
			c-0.154-1.073-0.936-1.736-2.014-1.737c-1.962-0.002-3.925-0.001-5.887-0.001h-0.307c0.044-0.139,0.074-0.239,0.106-0.339
			c0.397-1.223,0.647-2.471,0.6-3.764c-0.037-1.031-0.243-2.022-0.795-2.912c-0.368-0.593-0.858-1.038-1.53-1.252
			c-0.773-0.248-1.437,0.068-1.691,0.847c-0.098,0.295-0.133,0.627-0.12,0.939c0.026,0.64-0.046,1.26-0.229,1.869
			C9.74,4.982,9.062,6.057,8.245,7.045c-0.461,0.558-0.967,1.08-1.478,1.646C6.602,8.36,6.357,8.319,6.076,8.32
			c-1.811,0.006-3.622,0.007-5.434,0C0.35,8.318,0.129,8.402,0,8.678v11.965C0.117,20.885,0.302,21,0.576,20.999
			c1.871-0.005,3.743-0.001,5.614-0.003c0.391-0.001,0.564-0.182,0.566-0.575c0.003-0.363,0.001-0.727,0.001-1.104
			c0.067,0.007,0.112,0.004,0.153,0.017c1.431,0.438,2.89,0.744,4.367,0.966c2.153,0.324,4.316,0.499,6.493,0.479
			c0.454-0.004,0.878-0.137,1.252-0.406c0.706-0.511,0.902-1.347,0.498-2.118c-0.025-0.049-0.049-0.1-0.078-0.157
			c0.628-0.206,1.052-0.612,1.292-1.211c0.248-0.618,0.142-1.205-0.191-1.771c0.655-0.284,1.073-0.757,1.239-1.437
			c0.172-0.701-0.058-1.299-0.539-1.86C21.29,11.791,21.326,11.775,21.357,11.753z M5.783,20H0.975V9.322h4.809V20z M20.98,10.688
			c-0.086,0.382-0.394,0.59-0.811,0.593c-0.656,0.004-1.313,0.006-1.97,0.005c-0.22,0-0.402,0.067-0.508,0.273
			c-0.168,0.326,0.055,0.69,0.44,0.707c0.31,0.013,0.619,0.001,0.929,0.004c0.347,0.004,0.693,0.001,1.04,0.021
			c0.131,0.007,0.27,0.047,0.385,0.109c0.314,0.168,0.454,0.59,0.376,1.07c-0.067,0.416-0.288,0.686-0.667,0.729
			c-0.357,0.041-0.722,0.029-1.084,0.034c-0.504,0.007-1.009-0.001-1.513,0.013c-0.256,0.007-0.443,0.235-0.436,0.49
			c0.007,0.255,0.201,0.463,0.463,0.469c0.422,0.01,0.845,0.001,1.268,0.008c0.135,0.001,0.272,0.015,0.402,0.046
			c0.1,0.025,0.2,0.073,0.283,0.134c0.298,0.216,0.412,0.736,0.273,1.196c-0.108,0.356-0.375,0.571-0.778,0.58
			c-0.642,0.014-1.283,0.002-1.924,0.01c-0.382,0.005-0.615,0.332-0.484,0.664c0.086,0.216,0.257,0.309,0.481,0.313
			c0.264,0.006,0.528,0.008,0.792,0.018c0.729,0.025,0.95,0.729,0.783,1.181c-0.057,0.151-0.243,0.291-0.402,0.356
			c-0.189,0.078-0.413,0.098-0.621,0.097c-3.613-0.021-7.178-0.403-10.656-1.446c-0.213-0.063-0.295-0.146-0.292-0.386
			c0.015-1.294,0.007-2.588,0.007-3.882c0-1.301,0.003-2.603-0.004-3.904c-0.001-0.169,0.054-0.277,0.178-0.388
			c1.423-1.271,2.665-2.691,3.541-4.407c0.611-1.199,0.951-2.458,0.817-3.824c-0.054-0.55,0.298-0.769,0.787-0.511
			c0.366,0.192,0.618,0.508,0.833,0.852c0.52,0.837,0.664,1.767,0.644,2.733c-0.029,1.358-0.401,2.638-0.89,3.889
			c-0.192,0.493,0.004,0.786,0.532,0.786h6.61c0.061,0,0.12,0.002,0.181,0C20.979,9.289,21.136,9.996,20.98,10.688z"/>
	</g>
</g>
</svg>
