<?xml version="1.0" encoding="utf-8"?>
<!-- Generator: Adobe Illustrator 16.0.0, SVG Export Plug-In . SVG Version: 6.00 Build 0)  -->
<!DOCTYPE svg PUBLIC "-//W3C//DTD SVG 1.1//EN" "http://www.w3.org/Graphics/SVG/1.1/DTD/svg11.dtd">
<svg version="1.1" id="Layer_1" xmlns="http://www.w3.org/2000/svg" xmlns:xlink="http://www.w3.org/1999/xlink" x="0px" y="0px"
	 width="18.003px" height="20.001px" viewBox="0 0 18.003 20.001" enable-background="new 0 0 18.003 20.001" xml:space="preserve">
<g id="Shape_26">
	<g>
		<path fill-rule="evenodd" clip-rule="evenodd" fill="#333333" d="M17.959,3.586c-0.21-0.931-0.203-1.578-1.963-1.589
			c-0.324-0.002-0.648,0-1.008,0c0-0.677,0-1.337,0-1.997c-0.666,0-1.331,0-1.996,0c0,0.655,0,1.312,0,1.981
			c-2.658,0-5.311,0-7.982,0c0-0.661,0-1.321,0-1.981C4.345,0,3.679,0,3.014,0c0,0.654,0,1.309,0,1.996
			c-0.104,0-0.185-0.002-0.265,0.001C2.36,2.012,1.967,2.09,1.584,2.055c-1.474-0.137-1.34,0.722-1.543,1.547
			C0.03,3.651,0.015,3.7,0.001,3.75c0,4.844,0,9.688,0,14.531c-0.03,1.093,0.462,1.745,1.722,1.719c4.853,0,9.704,0,14.557,0
			c1.3-0.053,1.75-0.392,1.722-1.719c0-4.857,0-9.714,0-14.57C17.987,3.669,17.968,3.629,17.959,3.586z M1.202,18.823
			c0-3.665,0.041-9.536,0.041-13.198c4.66,0,10.85,0,15.518,0c0,3.653,0.041,9.528,0.041,13.198
			C12.151,18.823,5.874,18.823,1.202,18.823z M3.725,11.875c1.668,0,1.448,0,3.104,0c0-1.666,0-1.47,0-3.125
			c-1.665,0-1.44,0-3.104,0C3.725,10.413,3.725,10.217,3.725,11.875z"/>
	</g>
</g>
</svg>
