<?xml version="1.0" encoding="utf-8"?>
<!-- Generator: Adobe Illustrator 16.0.0, SVG Export Plug-In . SVG Version: 6.00 Build 0)  -->
<!DOCTYPE svg PUBLIC "-//W3C//DTD SVG 1.1//EN" "http://www.w3.org/Graphics/SVG/1.1/DTD/svg11.dtd">
<svg version="1.1" id="Layer_1" xmlns="http://www.w3.org/2000/svg" xmlns:xlink="http://www.w3.org/1999/xlink" x="0px" y="0px"
	 width="14.141px" height="16.996px" viewBox="0 0 14.141 16.996" enable-background="new 0 0 14.141 16.996" xml:space="preserve">
<g id="Shape_14">
	<g>
		<path fill-rule="evenodd" clip-rule="evenodd" fill="#FFFFFF" d="M11.834,9.031c-0.021-2.152,1.775-3.186,1.855-3.237
			c-1.01-1.46-2.584-1.66-3.145-1.684C9.207,3.977,7.932,4.89,7.254,4.89s-1.728-0.759-2.838-0.74
			C2.957,4.171,1.61,4.989,0.859,6.281c-1.517,2.6-0.389,6.453,1.09,8.564c0.723,1.031,1.584,2.191,2.714,2.149
			c1.089-0.043,1.5-0.696,2.817-0.696c1.316,0,1.687,0.696,2.838,0.674c1.172-0.021,1.914-1.051,2.631-2.086
			c0.83-1.199,1.171-2.359,1.191-2.418C14.115,12.457,11.857,11.602,11.834,9.031z M9.668,2.714c0.6-0.72,1.006-1.719,0.896-2.714
			C9.699,0.035,8.651,0.568,8.031,1.287C7.475,1.925,6.988,2.94,7.118,3.917C8.083,3.991,9.067,3.432,9.668,2.714z"/>
	</g>
</g>
</svg>
