<?xml version="1.0" encoding="utf-8"?>
<!-- Generator: Adobe Illustrator 16.0.0, SVG Export Plug-In . SVG Version: 6.00 Build 0)  -->
<!DOCTYPE svg PUBLIC "-//W3C//DTD SVG 1.1//EN" "http://www.w3.org/Graphics/SVG/1.1/DTD/svg11.dtd">
<svg version="1.1" id="Layer_1" xmlns="http://www.w3.org/2000/svg" xmlns:xlink="http://www.w3.org/1999/xlink" x="0px" y="0px"
	 width="52.75px" height="22px" viewBox="0 0 52.75 22" enable-background="new 0 0 52.75 22" xml:space="preserve">
<g id="Shape_2_1_">
	<g>
		<path fill="#ADADAD" d="M16.5,9.625h-2.75v2.75h2.75V9.625z M6.875,0h-2.75v2.75h2.75V0z M17.875,0h-2.75v2.75h2.75V0z
			 M16.5,13.75h-2.75v2.75h2.75V13.75z M8.25,13.75H5.5v2.75h2.75V13.75z M12.375,9.625h-2.75v2.75h2.75V9.625z M20.625,0H19.25
			v4.125h-5.5V0h-5.5v4.125h-5.5V0H1.375C0.615,0,0,0.615,0,1.375v19.25C0,21.385,0.615,22,1.375,22h19.25
			C21.385,22,22,21.385,22,20.625V1.375C22,0.615,21.385,0,20.625,0z M19.25,19.25H2.75V6.875h16.5V19.25z M8.25,9.625H5.5v2.75
			h2.75V9.625z M12.375,13.75h-2.75v2.75h2.75V13.75z"/>
	</g>
</g>
</svg>
