<?xml version="1.0" encoding="utf-8"?>
<!-- Generator: Adobe Illustrator 16.0.0, SVG Export Plug-In . SVG Version: 6.00 Build 0)  -->
<!DOCTYPE svg PUBLIC "-//W3C//DTD SVG 1.1//EN" "http://www.w3.org/Graphics/SVG/1.1/DTD/svg11.dtd">
<svg version="1.1" id="Layer_1" xmlns="http://www.w3.org/2000/svg" xmlns:xlink="http://www.w3.org/1999/xlink" x="0px" y="0px"
	 width="32px" height="29.001px" viewBox="0 0 32 29.001" enable-background="new 0 0 32 29.001" xml:space="preserve">
<g id="Shape_30">
	<g>
		<path fill-rule="evenodd" clip-rule="evenodd" fill="#333333" d="M30.314,2.217c-0.381-0.407-0.822-0.887-1.271-1.358
			c-0.295-0.309-0.574-0.805-0.912-0.854c-0.363-0.053-0.795,0.304-1.186,0.505c-3.577,1.851-6.857,4.137-9.853,6.843
			C16.93,7.5,16.806,7.605,16.541,7.488c-2.02-0.896-3.96-0.483-5.482,1.14c-1.781,1.899-3.549,3.812-5.344,5.697
			c-0.778,0.819-1.457,1.688-1.813,2.78c-0.396,1.217-0.465,2.449-0.151,3.693c0.066,0.264,0.033,0.441-0.162,0.647
			c-1.198,1.267-2.38,2.55-3.589,3.852c0.754,0.805,1.494,1.596,2.27,2.422c1.143-1.218,2.263-2.411,3.409-3.633
			c0.754,0.802,1.487,1.579,2.218,2.359c1.166,1.246,2.559,2.115,4.238,2.409c3.395,0.594,6.079-0.636,8.021-3.445
			c2.238-3.238,1.963-7.682-0.566-10.692c-0.082-0.099-0.167-0.195-0.281-0.328c0.317-0.339,0.598-0.664,0.906-0.961
			c0.184-0.178,0.201-0.324,0.089-0.555c-0.443-0.914-0.864-1.839-1.304-2.781c1.696-1.574,3.47-3.04,5.402-4.285
			C26.328,4.566,28.318,3.423,30.314,2.217z M16.824,24.269c-2.15,2.054-5.164,1.474-6.586-0.22
			c2.244-2.395,4.492-4.793,6.759-7.213C18.761,18.54,19.115,22.081,16.824,24.269z M31.848,13.587
			c-0.493-1.512-1.316-2.858-2.137-4.202c-0.274-0.45-0.567-0.889-0.902-1.412c-1.188,1.86-2.373,3.62-3.047,5.653
			c-0.422,1.273,0.082,2.658,1.188,3.46c1.101,0.8,2.612,0.799,3.715-0.001C31.789,16.271,32.271,14.885,31.848,13.587z"/>
	</g>
</g>
</svg>
