<?xml version="1.0" encoding="utf-8"?>
<!-- Generator: Adobe Illustrator 16.0.0, SVG Export Plug-In . SVG Version: 6.00 Build 0)  -->
<!DOCTYPE svg PUBLIC "-//W3C//DTD SVG 1.1//EN" "http://www.w3.org/Graphics/SVG/1.1/DTD/svg11.dtd">
<svg version="1.1" id="Layer_1" xmlns="http://www.w3.org/2000/svg" xmlns:xlink="http://www.w3.org/1999/xlink" x="0px" y="0px"
	 width="29.004px" height="32.001px" viewBox="0 0 29.004 32.001" enable-background="new 0 0 29.004 32.001" xml:space="preserve">
<g id="Shape_26">
	<g>
		<path fill-rule="evenodd" clip-rule="evenodd" fill="#333333" d="M28.934,5.738c-0.338-1.49-0.326-2.525-3.162-2.543
			c-0.521-0.003-1.045,0-1.624,0c0-1.083,0-2.14,0-3.195c-1.071,0-2.144,0-3.215,0c0,1.049,0,2.099,0,3.171
			c-4.283,0-8.556,0-12.861,0c0-1.058,0-2.114,0-3.171C7,0,5.928,0,4.856,0c0,1.047,0,2.094,0,3.194
			c-0.167,0-0.297-0.004-0.428,0.001c-0.626,0.023-1.26,0.148-1.876,0.092C0.178,3.068,0.394,4.442,0.067,5.764
			C0.047,5.843,0.023,5.921,0.002,6c0,7.75,0,15.5,0,23.25c-0.049,1.749,0.745,2.793,2.774,2.75c7.817,0,15.634,0,23.453,0
			c2.094-0.083,2.819-0.626,2.773-2.75c0-7.771,0-15.542,0-23.313C28.979,5.871,28.949,5.807,28.934,5.738z M1.935,30.117
			c0-5.864,0.067-15.258,0.067-21.117c7.508,0,17.48,0,25,0c0,5.845,0.066,15.245,0.066,21.117
			C19.576,30.117,9.462,30.117,1.935,30.117z M6.002,19c2.687,0,2.332,0,5,0c0-2.666,0-2.352,0-5c-2.683,0-2.322,0-5,0
			C6.002,16.66,6.002,16.347,6.002,19z"/>
	</g>
</g>
</svg>
