<?xml version="1.0" encoding="utf-8"?>
<!-- Generator: Adobe Illustrator 16.0.0, SVG Export Plug-In . SVG Version: 6.00 Build 0)  -->
<!DOCTYPE svg PUBLIC "-//W3C//DTD SVG 1.1//EN" "http://www.w3.org/Graphics/SVG/1.1/DTD/svg11.dtd">
<svg version="1.1" id="Layer_1" xmlns="http://www.w3.org/2000/svg" xmlns:xlink="http://www.w3.org/1999/xlink" x="0px" y="0px"
	 width="32px" height="32px" viewBox="0 0 32 32" enable-background="new 0 0 32 32" xml:space="preserve">
<g id="Shape_28">
	<g>
		<path fill-rule="evenodd" clip-rule="evenodd" fill="#333333" d="M31.753,13.212C30.737,6.973,25.662,1.67,19.461,0.381
			c-0.731-0.151-1.479-0.221-2.22-0.329C17.16,0.04,17.08,0.018,17,0c-0.667,0-1.333,0-2,0c-0.597,0.082-1.195,0.15-1.789,0.247
			C6.968,1.263,1.68,6.324,0.38,12.542c-0.15,0.721-0.219,1.459-0.327,2.188C0.042,14.801,0.018,14.868,0,14.938
			c0,0.708,0,1.417,0,2.125c0.081,0.574,0.143,1.152,0.247,1.723c0.773,4.217,2.9,7.598,6.339,10.144
			c2.426,1.795,5.163,2.786,8.173,3.021C14.84,31.955,14.92,31.982,15,32c0.667,0,1.333,0,2,0c0.586-0.08,1.174-0.145,1.757-0.243
			c6.12-1.029,11.228-5.732,12.728-11.751c0.223-0.895,0.311-1.821,0.461-2.733C31.96,17.181,31.981,17.091,32,17
			c0-0.667,0-1.333,0-2C31.918,14.403,31.85,13.806,31.753,13.212z M15.988,29.87C8.325,29.864,2.12,23.637,2.13,15.959
			C2.139,8.335,8.371,2.126,16.009,2.13c7.662,0.005,13.87,6.235,13.86,13.912C29.859,23.667,23.628,29.875,15.988,29.87z
			 M21.46,5.646c-4.234-2.212-8.453-1.885-12.35,0.882c-3.211,2.281-4.738,5.524-4.864,9.463c0.731,0,1.416,0,2.129,0
			c-0.047-4.704,3.593-9.071,8.714-9.547c2.348-0.218,4.518,0.335,6.436,1.713c2.664,1.914,3.982,4.563,4.095,7.843
			c0.375,0,0.717,0,1.06,0c0.351,0,0.701,0,1.093,0C27.539,11.369,25.563,7.79,21.46,5.646z M17.357,19.524
			c-0.225-0.104-0.299-0.21-0.299-0.457c0.009-3.395,0.006-6.789,0.005-10.184c0-0.109,0-0.22,0-0.331c-0.729,0-1.412,0-2.115,0
			c-0.005,0.119-0.014,0.221-0.014,0.322c-0.001,3.395-0.003,6.789,0.006,10.184c0.001,0.262-0.058,0.396-0.312,0.511
			c-1.277,0.581-1.992,1.896-1.806,3.26c0.21,1.532,1.466,2.676,3.041,2.771c1.473,0.089,2.877-0.958,3.241-2.414
			C19.476,21.701,18.753,20.168,17.357,19.524z M15.993,23.462c-0.597-0.004-1.061-0.476-1.057-1.076
			c0.003-0.574,0.479-1.051,1.053-1.055c0.587-0.005,1.072,0.478,1.073,1.066C17.064,22.99,16.587,23.465,15.993,23.462z"/>
	</g>
</g>
</svg>
