<?xml version="1.0" encoding="utf-8"?>
<!-- Generator: Adobe Illustrator 16.0.0, SVG Export Plug-In . SVG Version: 6.00 Build 0)  -->
<!DOCTYPE svg PUBLIC "-//W3C//DTD SVG 1.1//EN" "http://www.w3.org/Graphics/SVG/1.1/DTD/svg11.dtd">
<svg version="1.1" id="Layer_1" xmlns="http://www.w3.org/2000/svg" xmlns:xlink="http://www.w3.org/1999/xlink" x="0px" y="0px"
	 width="32px" height="32px" viewBox="0 0 32 32" enable-background="new 0 0 32 32" xml:space="preserve">
<g id="Shape_29">
	<g>
		<path fill="#333333" d="M31.902,26.821c-2.395-5.043-6.105-6.115-6.262-6.16L23.5,20.625c-1.516,0-2.75-1.234-2.75-2.75v-0.853
			c0.73-0.94,1.299-2.034,1.709-3.333l0.164-0.151c1.045-1.045,1.244-2.777,0.488-3.982c-0.021-0.038-0.043-0.076-0.072-0.118
			l0.002-0.793c0-0.773,0.002-1.547-0.004-2.334c-0.039-1.751-0.611-3.297-1.611-4.354c-0.846-0.894-2.018-1.503-3.385-1.764
			c-1.527-0.291-3.092-0.254-4.514,0.107c-1.453,0.367-2.727,1.235-3.488,2.375C9.395,3.62,9.023,4.827,8.967,6.195
			c-0.01,0.72-0.01,1.439-0.008,2.161l0.006,1.075c-0.061,0.09-0.113,0.176-0.133,0.22c-0.723,1.311-0.438,2.995,0.705,4.033
			l0.07,0.225c0.35,1.089,0.9,2.121,1.643,3.074v0.892c0,1.516-1.234,2.751-2.75,2.751H6.625l-0.266,0.035
			c-0.156,0.045-3.867,1.117-6.262,6.16L0,29.125C0,30.711,1.289,32,2.875,32h26.25C30.711,32,32,30.711,32,29.125V27.25
			L31.902,26.821z M30,29.125C30,29.608,29.607,30,29.125,30H2.875C2.393,30,2,29.608,2,29.125v-1.646
			c1.781-3.604,4.234-4.656,4.783-4.854H8.5c2.619,0,4.75-2.131,4.75-4.75v-1.606l-0.232-0.28c-0.693-0.831-1.201-1.736-1.539-2.8
			c-0.074-0.251-0.213-0.718-0.604-0.985c-0.436-0.357-0.568-1.084-0.238-1.676c0.123-0.178,0.377-0.548,0.322-0.952V8.352
			c-0.002-0.71-0.002-1.419,0.006-2.101c0.043-0.967,0.293-1.813,0.73-2.456c0.496-0.741,1.342-1.308,2.322-1.556
			c1.143-0.29,2.404-0.32,3.648-0.081c0.666,0.126,1.605,0.433,2.307,1.174c0.658,0.695,1.037,1.769,1.064,3.008
			c0.006,0.767,0.004,1.534,0.004,2.302v0.942c-0.023,0.461,0.209,0.785,0.348,0.985c0.291,0.467,0.211,1.163-0.25,1.619
			c-0.158,0.136-0.488,0.42-0.551,0.807c-0.352,1.163-0.891,2.183-1.604,3.028l-0.234,0.279v1.572c0,2.619,2.131,4.75,4.75,4.75
			h1.717c0.543,0.195,3,1.25,4.783,4.854V29.125z"/>
	</g>
</g>
</svg>
