<?xml version="1.0" encoding="utf-8"?>
<!-- Generator: Adobe Illustrator 16.0.0, SVG Export Plug-In . SVG Version: 6.00 Build 0)  -->
<!DOCTYPE svg PUBLIC "-//W3C//DTD SVG 1.1//EN" "http://www.w3.org/Graphics/SVG/1.1/DTD/svg11.dtd">
<svg version="1.1" id="Layer_1" xmlns="http://www.w3.org/2000/svg" xmlns:xlink="http://www.w3.org/1999/xlink" x="0px" y="0px"
	 width="32px" height="22.001px" viewBox="0 0 32 22.001" enable-background="new 0 0 32 22.001" xml:space="preserve">
<g id="Shape_31">
	<g>
		<path fill="#333333" d="M31.57,4.76c-1.338-0.002-2.676,0.013-4.013-0.01c-0.327-0.006-0.456,0.127-0.563,0.405
			c-0.43,1.115-0.881,2.222-1.315,3.334c-0.085,0.22-0.177,0.338-0.45,0.359c-0.455,0.036-0.635-0.134-0.743-0.573
			c-0.28-1.126-0.614-2.238-0.932-3.374h-2.352v-2.02h-3.878V1.623h2.971V0H7.359v1.653h2.96v1.243H6.416v2.211H3.08
			C3.08,6.958,3,9.193,3,11c-0.507,0-0.483,0-1,0V7H0v9.018C0.541,16.018,1.435,16,2,16v-3c0.518,0,0.495,0,1,0
			c0,1.822,0.108,2.883,0.108,4.718c1.158,0,2.276-0.014,3.394,0.013c0.19,0.005,0.439,0.132,0.554,0.285
			c0.861,1.154,1.686,2.337,2.548,3.491c0.124,0.165,0.388,0.315,0.587,0.316c4.319,0.018,8.64,0.01,12.96,0.021
			c0.327,0.002,0.445-0.106,0.525-0.414c0.271-1.037,0.573-2.065,0.862-3.097c0.063-0.224,0.085-0.465,0.423-0.43
			c0.292,0.03,0.578-0.065,0.73,0.359c0.4,1.109,0.871,2.192,1.29,3.295c0.121,0.317,0.273,0.452,0.629,0.442
			c0.983-0.027,1.968-0.01,2.951-0.01H32V4.79C31.839,4.778,31.704,4.761,31.57,4.76z M30.004,20c-0.626,0-1.251,0.013-1.874-0.015
			c-0.089-0.004-0.198-0.191-0.249-0.313c-0.448-1.069-0.896-2.139-1.318-3.218c-0.104-0.269-0.239-0.358-0.522-0.353
			c-0.812,0.017-1.624,0.021-2.436,0c-0.294-0.008-0.422,0.087-0.497,0.365c-0.275,1.018-0.581,2.026-0.856,3.044
			c-0.069,0.258-0.177,0.355-0.459,0.354c-3.579-0.009-7.157-0.001-10.736-0.02c-0.179-0.001-0.411-0.156-0.526-0.309
			c-0.814-1.067-1.615-2.145-2.393-3.239c-0.208-0.293-0.432-0.391-0.779-0.381c-0.778,0.022-1.557,0.007-2.363,0.007V7.09h3.217
			V5.003h11.238v1.895c0.813,0,1.562,0.014,2.31-0.007c0.29-0.008,0.417,0.076,0.494,0.363c0.305,1.129,0.64,2.25,0.969,3.393
			c1.008,0,1.984,0.011,2.959-0.014c0.123-0.003,0.297-0.168,0.353-0.298c0.456-1.065,0.9-2.137,1.321-3.216
			c0.11-0.281,0.248-0.39,0.556-0.374c0.521,0.025,1.044,0.007,1.594,0.007V20z"/>
	</g>
</g>
</svg>
