<?xml version="1.0" encoding="utf-8"?>
<!-- Generator: Adobe Illustrator 16.0.0, SVG Export Plug-In . SVG Version: 6.00 Build 0)  -->
<!DOCTYPE svg PUBLIC "-//W3C//DTD SVG 1.1//EN" "http://www.w3.org/Graphics/SVG/1.1/DTD/svg11.dtd">
<svg version="1.1" id="Layer_1" xmlns="http://www.w3.org/2000/svg" xmlns:xlink="http://www.w3.org/1999/xlink" x="0px" y="0px"
	 width="29px" height="32.001px" viewBox="0 0 29 32.001" enable-background="new 0 0 29 32.001" xml:space="preserve">
<g id="Shape_21">
	<g>
		<path fill-rule="evenodd" clip-rule="evenodd" fill="#333333" d="M22.561,12.623c1.813-0.971,3.584-1.919,5.373-2.877
			c-1.635-4.086-4.438-7.169-8.436-9.354c-1.245,1.511-2.468,2.995-3.704,4.496C18.915,6.814,21.157,9.376,22.561,12.623z
			 M28.361,10.978c-1.845,0.93-3.618,1.824-5.386,2.716c1.136,3.579,1.028,7.084-0.33,10.569c1.009,0.462,1.994,0.914,3.005,1.377
			C28.877,21.119,29.755,16.263,28.361,10.978z M16.844,8.14c-0.016-0.044-0.021-0.077-0.038-0.103
			c-0.044-0.064-0.093-0.126-0.166-0.222c-4.102,2.209-8.182,4.407-12.26,6.604c-0.121-0.083-0.224-0.156-0.33-0.225
			c-0.881-0.555-2.046-0.546-2.92,0.02c-0.871,0.562-1.299,1.569-1.067,2.512c0.313,1.275,1.62,2.113,2.954,1.893
			c1.398-0.231,2.325-1.374,2.156-2.693c-0.035-0.274,0.034-0.423,0.287-0.582c3.716-2.336,7.422-4.685,11.131-7.031
			C16.677,8.258,16.759,8.197,16.844,8.14z M16.474,31.736c0.115,0.251,0.26,0.311,0.529,0.211c1.826-0.675,3.514-1.57,5.041-2.726
			c0.961-0.727,1.845-1.526,2.651-2.45c-0.878-0.438-1.732-0.863-2.613-1.302C20.763,28.017,18.896,30.099,16.474,31.736z
			 M11.338,29.948h2.481v-0.764h-2.479v-1.068h2.647v-0.751h-3.649v4.636h3.756v-0.771h-2.757V29.948z M11.469,2.661h2.083V1.882
			h-2.066V0.743h2.374V0h-3.366v4.649h0.976V2.661z"/>
	</g>
</g>
</svg>
