<?xml version="1.0" encoding="utf-8"?>
<!-- Generator: Adobe Illustrator 16.0.0, SVG Export Plug-In . SVG Version: 6.00 Build 0)  -->
<!DOCTYPE svg PUBLIC "-//W3C//DTD SVG 1.1//EN" "http://www.w3.org/Graphics/SVG/1.1/DTD/svg11.dtd">
<svg version="1.1" id="Layer_1" xmlns="http://www.w3.org/2000/svg" xmlns:xlink="http://www.w3.org/1999/xlink" x="0px" y="0px"
	 width="24.001px" height="31.999px" viewBox="0 0 24.001 31.999" enable-background="new 0 0 24.001 31.999" xml:space="preserve">
<g id="Shape_25">
	<g>
		<path fill="#333333" d="M23.773,18.791c-0.462-2.288-1.459-4.392-2.611-6.435c-2.021-3.583-4.495-6.889-7.177-10.065
			C13.355,1.544,12.701,0.814,11.99,0c-0.123,0.148-0.193,0.238-0.271,0.325C9.593,2.721,7.567,5.188,5.743,7.794
			c-1.862,2.658-3.57,5.393-4.742,8.391C0.08,18.543-0.337,20.938,0.32,23.43c1.47,5.57,7.118,9.224,13.262,8.472
			c3.16-0.387,5.785-1.76,7.771-4.092C23.612,25.155,24.45,22.142,23.773,18.791z M12.004,3.344c0,8.716,0,17.432-0.001,26.147
			c-0.001,0.604-0.005,0.618-0.667,0.574c-4.569-0.309-8.228-3.277-9.128-7.313c-0.489-2.193,0.004-4.29,0.804-6.344
			c1.411-3.621,3.593-6.863,5.979-9.997c0.828-1.088,1.734-2.127,2.607-3.187c0.088-0.106,0.194-0.2,0.292-0.301
			c0.037,0.015,0.075,0.029,0.113,0.044V3.344z"/>
	</g>
</g>
</svg>
