<?xml version="1.0" encoding="utf-8"?>
<!-- Generator: Adobe Illustrator 16.0.0, SVG Export Plug-In . SVG Version: 6.00 Build 0)  -->
<!DOCTYPE svg PUBLIC "-//W3C//DTD SVG 1.1//EN" "http://www.w3.org/Graphics/SVG/1.1/DTD/svg11.dtd">
<svg version="1.1" id="Layer_1" xmlns="http://www.w3.org/2000/svg" xmlns:xlink="http://www.w3.org/1999/xlink" x="0px" y="0px"
	 width="27.001px" height="32px" viewBox="0 0 27.001 32" enable-background="new 0 0 27.001 32" xml:space="preserve">
<g id="Shape_33">
	<g>
		<path fill="#333333" d="M26.712,4.168c-4.264-1.34-8.524-2.69-12.785-4.04C13.824,0.096,13.728,0.043,13.628,0h-0.243
			c-0.815,0.27-1.63,0.546-2.448,0.806C7.391,1.932,3.844,3.055,0.294,4.168c-0.228,0.071-0.291,0.165-0.29,0.403
			C0.012,8.248,0.029,11.924,0,15.601c-0.015,1.795,0.476,3.424,1.321,4.963c1.122,2.044,2.622,3.773,4.279,5.365
			c2.347,2.254,4.924,4.198,7.659,5.923c0.066,0.042,0.124,0.099,0.186,0.148h0.122c0.086-0.066,0.166-0.142,0.258-0.199
			c3.184-2.034,6.178-4.319,8.787-7.103c1.477-1.575,2.771-3.288,3.637-5.306c0.509-1.186,0.756-2.426,0.751-3.729
			c-0.014-3.695-0.007-7.392,0.001-11.088C27.001,4.34,26.94,4.24,26.712,4.168z M12.456,28.6c-0.063-0.026-0.12-0.039-0.166-0.069
			c-2.473-1.572-4.795-3.342-6.803-5.517C4.209,21.63,3.11,20.12,2.484,18.295c-0.274-0.803-0.404-1.628-0.403-2.48
			c0.004-3.218,0.004-6.436-0.005-9.653c-0.001-0.246,0.058-0.355,0.3-0.433c3.252-1.044,6.501-2.102,9.751-3.155
			c0.095-0.031,0.192-0.053,0.329-0.09V28.6z M24.916,15.991c-0.003,1.444-0.466,2.755-1.153,3.992
			c-0.807,1.45-1.864,2.695-3.029,3.846c-1.842,1.818-3.893,3.355-6.063,4.729c-0.024,0.016-0.054,0.024-0.106,0.048V2.478
			c0.35,0.112,0.685,0.221,1.021,0.329c3.019,0.978,6.036,1.958,9.057,2.929c0.207,0.066,0.282,0.153,0.282,0.384
			C24.915,9.41,24.921,12.7,24.916,15.991z"/>
	</g>
</g>
</svg>
