<?xml version="1.0" encoding="utf-8"?>
<!-- Generator: Adobe Illustrator 16.0.0, SVG Export Plug-In . SVG Version: 6.00 Build 0)  -->
<!DOCTYPE svg PUBLIC "-//W3C//DTD SVG 1.1//EN" "http://www.w3.org/Graphics/SVG/1.1/DTD/svg11.dtd">
<svg version="1.1" id="Layer_1" xmlns="http://www.w3.org/2000/svg" xmlns:xlink="http://www.w3.org/1999/xlink" x="0px" y="0px"
	 width="42px" height="42.001px" viewBox="0 0 42 42.001" enable-background="new 0 0 42 42.001" xml:space="preserve">
<g id="Shape_10">
	<g>
		<path fill-rule="evenodd" clip-rule="evenodd" fill="#343434" d="M34.144,27.109c-1.24-0.207-2.381-0.379-3.512-0.598
			c-0.324-0.063-0.473,0.018-0.631,0.289c-0.518,0.889-1.064,1.762-1.627,2.684c-0.115-0.189-0.207-0.332-0.291-0.48
			c-1.846-3.285-3.736-6.547-5.51-9.869c-0.484-0.906-1.014-1.285-2.01-1.145c-0.33,0.047-0.518,0.121-0.684,0.416
			c-1.979,3.533-3.973,7.056-5.963,10.582c-0.078,0.141-0.166,0.273-0.277,0.453c-0.393-0.639-0.742-1.211-1.098-1.781
			c-0.25-0.395-0.428-0.977-0.785-1.123c-0.379-0.158-0.932,0.092-1.406,0.174c-0.791,0.133-1.58,0.273-2.477,0.43
			c1.742-3.092,3.426-6.078,5.127-9.099c-3.373,0-6.678,0-9.982,0c0,8.009,0,15.984,0,23.96c12.016,0,24.002,0,35.975,0
			c0-8.016,0-15.99,0-23.97c-3.326,0-6.617,0-9.98,0C30.726,21.062,32.411,24.044,34.144,27.109z M34.019,9.003
			c0.695-1.387,0.748-2.77,0.467-4.207c-0.834-4.254-7.053-6.435-10.516-3.342c-1.088,0.973-1.967,2.094-2.693,3.348
			c-0.078,0.137-0.166,0.27-0.242,0.395c-0.551-0.795-1.029-1.568-1.586-2.279c-2.104-2.689-4.715-3.501-7.801-2.465
			c-2.885,0.969-4.484,3.328-4.24,6.361c0.061,0.738,0.309,1.461,0.479,2.232c-2.578,0-5.227,0-7.887,0c0,2.497,0,4.936,0,7.409
			c14.033,0,28.021,0,42,0c0-2.488,0-4.938,0-7.452C39.325,9.003,36.683,9.003,34.019,9.003z M19.306,8.994
			c-2.068-0.049-4.129,0.191-6.131-0.393c-0.65-0.189-1.285-0.482-1.873-0.82c-0.652-0.375-0.898-1.006-0.826-1.762
			c0.148-1.553,1.256-2.646,2.932-2.957c1.09-0.201,2.01,0.096,2.82,0.803c1.406,1.227,2.199,2.855,2.91,4.533
			c0.061,0.145,0.113,0.291,0.166,0.438C19.313,8.863,19.306,8.896,19.306,8.994z M30.501,7.923
			c-0.943,0.564-1.988,0.865-3.064,0.945c-1.557,0.113-3.119,0.117-4.805,0.174c0.805-2.021,1.668-3.834,3.234-5.234
			c1.865-1.67,5.201-0.49,5.625,1.811C31.683,6.664,31.423,7.373,30.501,7.923z"/>
	</g>
</g>
</svg>
