<?xml version="1.0" encoding="utf-8"?>
<!-- Generator: Adobe Illustrator 16.0.0, SVG Export Plug-In . SVG Version: 6.00 Build 0)  -->
<!DOCTYPE svg PUBLIC "-//W3C//DTD SVG 1.1//EN" "http://www.w3.org/Graphics/SVG/1.1/DTD/svg11.dtd">
<svg version="1.1" id="Layer_1" xmlns="http://www.w3.org/2000/svg" xmlns:xlink="http://www.w3.org/1999/xlink" x="0px" y="0px"
	 width="48px" height="33.019px" viewBox="0 0 48 33.019" enable-background="new 0 0 48 33.019" xml:space="preserve">
<g id="Shape_9">
	<g>
		<path fill="#343434" d="M47.917,18.255c-0.047-0.92-0.068-1.842-0.125-2.763c-0.098-1.627-0.689-3.029-1.945-4.113
			c-1.301-1.125-2.6-2.25-3.887-3.389c-0.117-0.104-0.145-0.311-0.213-0.471c0.15-0.047,0.297-0.117,0.449-0.135
			c0.57-0.064,1.174-0.018,1.709-0.188c1.076-0.34,1.438-1.039,0.479-1.946c-0.811-0.766-1.813-0.816-2.854-0.688
			c-0.289,0.035-0.439,0.18-0.453,0.434c-0.023,0.459-0.006,0.918-0.006,1.409c-0.381,0.115-0.707,0.08-0.951-0.348
			c-0.959-1.674-2.086-3.221-3.439-4.606C35.75,0.5,34.615,0.025,33.326,0.021c-6.201-0.027-12.403-0.027-18.601-0.004
			c-1.307,0.004-2.457,0.467-3.404,1.434C9.955,2.843,8.828,4.408,7.851,6.092c-0.236,0.404-0.523,0.467-0.932,0.26
			c0-0.479,0.018-0.94-0.014-1.399C6.898,4.83,6.767,4.656,6.652,4.609c-0.879-0.355-2.5,0.041-3.138,0.738
			C2.704,6.23,3.066,6.762,3.996,7.191c0.138,0.064,0.299,0.096,0.452,0.109c0.419,0.037,0.841,0.047,1.26,0.088
			C5.891,7.406,6.069,7.475,6.25,7.52c-0.092,0.18-0.142,0.408-0.283,0.533c-1.145,1.016-2.279,2.047-3.469,3.01
			c-1.569,1.271-2.293,2.9-2.314,4.898C0.173,16.894,0.064,17.826,0,18.757v3.941c0.096,0.785,0.141,1.582,0.301,2.354
			c0.201,0.971,0.374,1.982,0.794,2.863c0.313,0.656,0.438,1.264,0.421,1.951c-0.016,0.639,0.03,1.281-0.014,1.918
			c-0.036,0.535,0.132,0.934,0.561,1.234h9.375c0.463-0.307,0.59-0.746,0.557-1.283c-0.033-0.559-0.006-1.119-0.006-1.717h24.023
			c0,0.572,0.025,1.146-0.008,1.717c-0.029,0.537,0.094,0.977,0.559,1.283h9.375c0.43-0.301,0.609-0.699,0.559-1.234
			c-0.041-0.447-0.008-0.904-0.006-1.357c0.002-0.938,0.031-1.814,0.514-2.725c0.688-1.297,0.766-2.811,0.9-4.271
			c0.021-0.246,0.063-0.488,0.096-0.732v-3.941C47.97,18.591,47.925,18.425,47.917,18.255z M9.197,7.619
			c0.916-1.734,2.029-3.338,3.281-4.84c0.729-0.873,1.764-1.273,2.869-1.279c5.776-0.033,11.555-0.041,17.334,0.002
			c1.199,0.01,2.307,0.482,3.031,1.521c1.051,1.51,2.07,3.043,3.076,4.584c0.309,0.471,0.246,0.715-0.314,0.85
			c-0.934,0.223-1.896,0.42-2.85,0.441c-3.512,0.08-7.025,0.082-10.539,0.113c-0.359,0.002-0.719,0-1.078,0V8.918
			c-3.874,0-7.744,0.016-11.617-0.012C11.586,8.9,10.781,8.734,9.979,8.629c-0.166-0.021-0.33-0.094-0.484-0.166
			C8.982,8.227,8.941,8.104,9.197,7.619z M35.9,17.835c-0.025,0.053-0.051,0.107-0.074,0.162H12.18
			c-0.025-0.041-0.053-0.084-0.078-0.125c0.221-0.152,0.424-0.379,0.668-0.443c0.434-0.113,0.893-0.176,1.34-0.178
			c6.593-0.01,13.187-0.01,19.781,0c0.434,0,0.877,0.059,1.295,0.164C35.443,17.482,35.664,17.691,35.9,17.835z M1.612,15.9
			c0.063-0.287,0.154-0.574,0.272-0.843c0.728-1.648,1.964-1.902,3.55-1.203c0.513,0.227,0.77,0.703,0.833,1.229
			c0.047,0.387,0.244,0.512,0.56,0.629c1.311,0.484,2.487,1.179,3.278,2.371c0.191,0.287,0.393,0.711,0.316,1
			c-0.119,0.451-0.65,0.414-1.045,0.426c-0.857,0.023-1.715,0.008-2.575,0.008v0.006c-0.764,0-1.529,0.004-2.293,0
			C2.267,19.511,1.125,18.087,1.612,15.9z M9.605,28.525C8.5,28.505,7.376,28.564,6.291,28.4c-0.762-0.115-1.521-0.469-2.196-0.859
			c-0.938-0.545-1.396-1.986-1.08-3.023c0.104-0.34,0.37-0.52,0.71-0.508c1.545,0.059,3.091,0.105,4.631,0.223
			c0.766,0.059,1.4,0.49,1.814,1.133c0.607,0.943,1.152,1.93,1.721,2.898c0.037,0.063,0.047,0.141,0.09,0.266
			C11.158,28.529,10.383,28.541,9.605,28.525z M11.977,18.775h24.031c-0.023,0.242-0.045,0.477-0.066,0.727H12.064
			C12.035,19.259,12.008,19.033,11.977,18.775z M31.453,28.523c-4.266,0.01-8.531,0.004-12.797,0.004
			c-0.625,0-1.25-0.012-1.875,0.004c-1.314,0.029-2.337-0.467-2.984-1.643c-0.23-0.418-0.438-0.85-0.701-1.369h21.679
			C34.636,27.085,33.06,28.521,31.453,28.523z M33.539,22.531c-6.387-0.012-12.776-0.01-19.162-0.002
			c-0.598,0-1.016-0.283-1.455-0.752h22.162C34.613,22.285,34.158,22.531,33.539,22.531z M34.919,21.023H13.127
			c-0.666-0.002-0.666-0.004-0.83-0.762h23.369C35.617,20.964,35.562,21.023,34.919,21.023z M43.017,28.031
			c-0.709,0.252-1.475,0.439-2.223,0.473c-1.572,0.072-3.15,0.021-4.898,0.021c0.74-1.195,1.365-2.293,2.082-3.328
			c0.477-0.689,1.232-0.977,2.074-1.014c1.311-0.057,2.621-0.131,3.932-0.178c0.807-0.029,0.98,0.209,1.039,1.016
			C45.134,26.564,44.4,27.539,43.017,28.031z M46.488,17.402c-0.068,0.691-0.449,1.27-1.064,1.564
			c-0.563,0.268-1.191,0.465-1.809,0.531c-0.818,0.09-1.652,0.023-2.479,0.023v-0.004c-0.781,0-1.561,0.008-2.342-0.004
			c-0.262-0.004-0.531-0.033-0.785-0.094c-0.494-0.119-0.672-0.453-0.391-0.867c0.373-0.549,0.771-1.107,1.268-1.537
			c0.512-0.441,1.121-0.805,1.744-1.068c0.627-0.263,1.164-0.492,1.236-1.283c0.02-0.213,0.23-0.443,0.41-0.605
			c1.01-0.916,2.748-0.723,3.508,0.398C46.386,15.344,46.589,16.351,46.488,17.402z"/>
	</g>
</g>
</svg>
