<?xml version="1.0" encoding="utf-8"?>
<!-- Generator: Adobe Illustrator 16.0.0, SVG Export Plug-In . SVG Version: 6.00 Build 0)  -->
<!DOCTYPE svg PUBLIC "-//W3C//DTD SVG 1.1//EN" "http://www.w3.org/Graphics/SVG/1.1/DTD/svg11.dtd">
<svg version="1.1" id="Layer_1" xmlns="http://www.w3.org/2000/svg" xmlns:xlink="http://www.w3.org/1999/xlink" x="0px" y="0px"
	 width="42px" height="42px" viewBox="0 0 42 42" enable-background="new 0 0 42 42" xml:space="preserve">
<g id="Shape_11">
	<g>
		<path fill-rule="evenodd" clip-rule="evenodd" fill="#343434" d="M31.06,3.948c-10.162,0.002-20.324,0.002-30.486,0
			c-0.191,0-0.383-0.006-0.574-0.01c0,4.047,0,8.094,0,12.141c0.273-0.004,0.547-0.012,0.82-0.012c10.543,0,21.088,0,31.633,0
			c3.182,0,6.365,0.008,9.547,0.012c0-4.047,0-8.094,0-12.141C38.353,3.942,34.706,3.948,31.06,3.948z M10.722,12.714
			c-0.457,0.191-0.965,0.32-1.459,0.352c-0.881,0.055-1.768,0.016-2.672,0.016c-0.018-0.168-0.039-0.271-0.039-0.377
			C6.55,10.927,6.554,9.151,6.546,7.374c0-0.24,0.043-0.398,0.32-0.398c0.994-0.004,1.99-0.031,2.984-0.004
			c0.303,0.008,0.621,0.125,0.895,0.264c0.975,0.494,1.035,1.678,0.131,2.291c-0.088,0.061-0.18,0.119-0.287,0.189
			c0.078,0.045,0.135,0.078,0.193,0.109c0.58,0.295,0.951,0.745,0.941,1.417C11.712,11.937,11.341,12.452,10.722,12.714z
			 M19.583,12.972c-0.563,0-1.107,0.012-1.652-0.01c-0.098-0.004-0.197-0.131-0.283-0.213c-0.033-0.033-0.027-0.104-0.045-0.156
			c-0.123-0.357-0.146-0.852-0.398-1.033c-0.256-0.182-0.734-0.057-1.115-0.063c-0.176-0.004-0.354,0-0.557,0
			c-0.115,0.414-0.213,0.822-0.348,1.219c-0.035,0.105-0.184,0.238-0.285,0.244c-0.502,0.023-1.006,0.01-1.561,0.01
			c0.043-0.174,0.068-0.314,0.111-0.449c0.553-1.754,1.113-3.506,1.656-5.264c0.084-0.275,0.195-0.4,0.506-0.385
			c0.559,0.027,1.119-0.008,1.678,0.02c0.131,0.008,0.33,0.137,0.371,0.256c0.654,1.893,1.291,3.792,1.93,5.69
			C19.599,12.86,19.589,12.89,19.583,12.972z M27.382,12.972c-0.586,0-1.17,0.014-1.75-0.014c-0.107-0.004-0.242-0.154-0.307-0.268
			c-0.697-1.25-1.385-2.506-2.063-3.737c0,1.297,0,2.631,0,3.993c-0.518,0-1.043,0-1.594,0c0-2.014,0-4.016,0-6.065
			c0.664,0,1.314-0.014,1.967,0.012c0.107,0.004,0.25,0.146,0.311,0.26c0.592,1.123,1.17,2.252,1.752,3.379
			c0.023,0.043,0.053,0.084,0.088,0.143c0-1.268,0-2.502,0-3.778c0.537,0,1.053,0,1.596,0C27.382,8.915,27.382,10.917,27.382,12.972
			z M33.497,12.954c-0.082-0.002-0.176-0.15-0.236-0.248c-0.436-0.709-0.865-1.422-1.313-2.158c-0.373,0.342-0.688,0.66-0.611,1.221
			c0.051,0.373,0.01,0.76,0.01,1.172c-0.551,0-1.076,0-1.633,0c0-1.998,0-4,0-6.032c0.521,0,1.047,0,1.609,0
			c0,0.836,0,1.678,0,2.641c0.137-0.162,0.207-0.229,0.26-0.307c0.475-0.701,0.939-1.41,1.424-2.104
			c0.082-0.115,0.242-0.242,0.369-0.248c0.627-0.025,1.254-0.012,1.99-0.012c-0.76,0.91-1.449,1.734-2.145,2.566
			c0.736,1.161,1.459,2.299,2.234,3.52C34.759,12.966,34.128,12.976,33.497,12.954z M40.194,0C27.397,0,14.601,0,1.804,0
			c0,0.856,0,1.714,0,2.593c12.805,0,25.559,0,38.391,0C40.194,1.733,40.194,0.868,40.194,0z M11.337,39.385
			c-3.779-0.002-7.559-0.006-11.338-0.01c0,0.873,0,1.746,0,2.625c5.852,0,11.703,0,17.555,0c0-0.867,0-1.732,0-2.615
			C15.431,39.385,13.384,39.387,11.337,39.385z M24.929,39.385c-0.145,0-0.291,0-0.484,0c0,0.902,0,1.758,0,2.615
			c5.852,0,11.703,0,17.555,0c0-0.875,0-1.75,0-2.625c-0.123,0.004-0.244,0.01-0.367,0.01
			C36.063,39.387,30.497,39.385,24.929,39.385z M24.456,37.584c0,0.145,0,0.291,0,0.443c1.547,0,3.043,0,4.588,0
			c0-3.229,0-6.432,0-9.621c2.217,0,4.381,0,6.582,0c0,3.227,0,6.418,0,9.621c1.531,0,3.027,0,4.541,0c0-6.652,0-13.277,0-19.949
			c-12.789,0-25.551,0-38.318,0c0,6.666,0,13.31,0,19.941c1.531,0,3.025,0,4.555,0c0-3.227,0-6.42,0-9.623c2.199,0,4.365,0,6.58,0
			c0,3.227,0,6.43,0,9.625c1.545,0,3.039,0,4.559,0c0-0.178,0-0.326,0-0.477c0-4.018-0.006-8.037,0.01-12.055
			c0.002-0.471,0.059-0.965,0.211-1.406c0.541-1.561,2.195-2.523,3.766-2.242c1.707,0.307,2.92,1.697,2.924,3.398
			C24.462,29.356,24.456,33.469,24.456,37.584z M30.657,22.87c1.16-0.688,2.357-0.648,3.48,0.096
			c1.217,0.809,1.598,2.004,1.449,3.436c-2.178,0-4.342,0-6.537,0C28.903,24.885,29.335,23.653,30.657,22.87z M12.948,26.397
			c-2.172,0-4.334,0-6.537,0c-0.148-1.453,0.25-2.658,1.494-3.459c1.146-0.736,2.355-0.748,3.512-0.021
			C12.687,23.711,13.095,24.924,12.948,26.397z M9.431,10.632c-0.375-0.113-0.787-0.105-1.205-0.15c0,0.492,0,0.898,0,1.443
			c0.459-0.07,0.883-0.082,1.264-0.215c0.168-0.061,0.35-0.373,0.34-0.563C9.821,10.962,9.608,10.685,9.431,10.632z M9.708,8.606
			c0.01-0.123-0.217-0.354-0.371-0.389c-0.348-0.082-0.715-0.07-1.102-0.1c0,0.383,0,0.691,0,1.094
			c0.396-0.045,0.77-0.045,1.111-0.148C9.507,9.014,9.692,8.774,9.708,8.606z M15.786,10.288c0.416,0,0.795,0,1.205,0
			c-0.217-0.715-0.418-1.385-0.65-2.152C16.14,8.917,15.962,9.604,15.786,10.288z"/>
	</g>
</g>
</svg>
