<?xml version="1.0" encoding="utf-8"?>
<!-- Generator: Adobe Illustrator 16.0.0, SVG Export Plug-In . SVG Version: 6.00 Build 0)  -->
<!DOCTYPE svg PUBLIC "-//W3C//DTD SVG 1.1//EN" "http://www.w3.org/Graphics/SVG/1.1/DTD/svg11.dtd">
<svg version="1.1" id="Layer_1" xmlns="http://www.w3.org/2000/svg" xmlns:xlink="http://www.w3.org/1999/xlink" x="0px" y="0px"
	 width="136.007px" height="81.977px" viewBox="0 0 136.007 81.977" enable-background="new 0 0 136.007 81.977"
	 xml:space="preserve">
<g id="logo">
	<g>
		<path fill-rule="evenodd" clip-rule="evenodd" fill="#010101" d="M12.771,79.722c-0.209-0.298-0.402-0.631-0.578-1.001
			c-0.24-0.482-0.461-0.956-0.662-1.423c-0.2-0.466-0.401-0.896-0.601-1.29c-0.201-0.394-0.429-0.731-0.686-1.013
			s-0.569-0.485-0.938-0.614c1.074-0.322,1.896-0.853,2.465-1.592c0.569-0.739,0.87-1.584,0.902-2.532
			c0.032-0.676-0.06-1.286-0.276-1.833c-0.217-0.546-0.514-1.032-0.89-1.458c-0.377-0.426-0.814-0.784-1.311-1.073
			c-0.497-0.29-1.021-0.526-1.575-0.712c-0.553-0.185-1.11-0.313-1.672-0.386s-1.09-0.092-1.587-0.061
			c-0.77,0.049-1.483,0.142-2.141,0.278C2.565,65.148,2,65.374,1.527,65.687c-0.474,0.314-0.846,0.729-1.119,1.242
			C0.136,67.443,0,68.086,0,68.858v10.199c0,0.966,0.256,1.652,0.77,2.063c0.513,0.41,1.267,0.615,2.261,0.615
			c-0.016-0.097-0.032-0.241-0.048-0.435c-0.016-0.176-0.028-0.413-0.036-0.711c-0.008-0.297-0.012-0.695-0.012-1.194v-4.87
			c0.256,0.048,0.505,0.096,0.746,0.145c0.208,0.032,0.413,0.068,0.614,0.108c0.2,0.04,0.356,0.068,0.469,0.084
			c0.08,0.033,0.164,0.057,0.252,0.072c0.088,0.017,0.181,0.041,0.277,0.072c0.561,0.161,1.035,0.374,1.419,0.64
			s0.713,0.655,0.986,1.169c0.465,0.917,0.878,1.681,1.239,2.292c0.361,0.61,0.701,1.101,1.022,1.47
			c0.32,0.37,0.641,0.644,0.962,0.82s0.674,0.29,1.059,0.338c0.336,0.048,0.625,0.048,0.866,0c0.24-0.048,0.448-0.112,0.625-0.192
			c0.177-0.098,0.337-0.218,0.481-0.362c-0.208-0.193-0.409-0.418-0.601-0.676C13.171,80.281,12.979,80.02,12.771,79.722z
			 M8.634,72.234c-0.577,0.402-1.371,0.603-2.381,0.603c-0.369,0-0.745-0.02-1.13-0.06c-0.385-0.041-0.738-0.085-1.059-0.133
			c-0.385-0.064-0.762-0.137-1.13-0.218c0-0.096,0-0.292,0-0.59s-0.004-0.623-0.012-0.978c-0.008-0.353-0.012-0.702-0.012-1.048
			c0-0.347,0-0.624,0-0.832c0-0.21,0.04-0.418,0.12-0.628c0.08-0.208,0.212-0.397,0.396-0.566c0.185-0.169,0.434-0.313,0.746-0.434
			c0.313-0.121,0.71-0.205,1.191-0.254c0.53-0.048,1.066-0.02,1.611,0.085S8,67.464,8.418,67.713
			c0.417,0.249,0.746,0.587,0.986,1.013c0.241,0.426,0.329,0.938,0.265,1.531C9.556,71.173,9.211,71.833,8.634,72.234z
			 M28.019,66.905c-0.77-0.724-1.647-1.27-2.633-1.64c-0.986-0.37-2.008-0.555-3.067-0.555c-1.058,0-2.08,0.185-3.066,0.555
			c-0.986,0.37-1.864,0.916-2.634,1.64c-0.77,0.723-1.383,1.62-1.84,2.688c-0.457,1.069-0.685,2.312-0.685,3.726
			c0,1.415,0.229,2.661,0.685,3.737c0.458,1.077,1.071,1.982,1.84,2.713c0.77,0.731,1.647,1.283,2.634,1.652
			c0.986,0.369,2.008,0.555,3.066,0.555c1.059,0,2.081-0.186,3.067-0.555c0.986-0.369,1.864-0.921,2.633-1.652
			c0.77-0.73,1.383-1.636,1.84-2.713c0.457-1.076,0.685-2.322,0.685-3.737c0-1.414-0.228-2.656-0.685-3.726
			C29.402,68.525,28.789,67.628,28.019,66.905z M26.938,76.261c-0.289,0.82-0.674,1.504-1.155,2.051
			c-0.481,0.546-1.022,0.948-1.624,1.205c-0.602,0.257-1.214,0.386-1.84,0.386c-0.625,0-1.238-0.129-1.839-0.386
			c-0.602-0.257-1.143-0.659-1.624-1.205c-0.481-0.547-0.866-1.23-1.154-2.051c-0.289-0.819-0.433-1.8-0.433-2.941
			c0-1.125,0.144-2.099,0.433-2.918c0.288-0.82,0.673-1.495,1.154-2.025c0.481-0.53,1.022-0.924,1.624-1.182
			c0.601-0.257,1.215-0.386,1.839-0.386c0.626,0,1.239,0.129,1.84,0.386c0.601,0.258,1.143,0.651,1.624,1.182
			s0.866,1.205,1.155,2.025c0.288,0.819,0.433,1.793,0.433,2.918C27.37,74.461,27.226,75.441,26.938,76.261z M41.873,67.616
			c0.24-0.506,0.424-0.904,0.553-1.193c0.16-0.321,0.289-0.603,0.385-0.844c0.064-0.145,0.12-0.29,0.167-0.435
			c-0.464-0.112-0.905-0.145-1.322-0.097c-0.369,0.032-0.742,0.149-1.119,0.351s-0.694,0.542-0.95,1.024
			c-0.096,0.177-0.217,0.414-0.361,0.711c-0.144,0.298-0.301,0.624-0.469,0.977c-0.169,0.354-0.345,0.724-0.529,1.109
			s-0.365,0.771-0.542,1.157c-0.417,0.885-0.858,1.833-1.322,2.846c-0.466-1.013-0.907-1.961-1.323-2.846
			c-0.177-0.386-0.361-0.771-0.554-1.157c-0.192-0.386-0.373-0.756-0.541-1.109c-0.169-0.353-0.321-0.679-0.457-0.977
			c-0.136-0.297-0.252-0.534-0.349-0.711c-0.257-0.482-0.573-0.823-0.95-1.024c-0.377-0.201-0.75-0.318-1.119-0.351
			c-0.417-0.048-0.85-0.016-1.298,0.097c0.031,0.145,0.08,0.29,0.144,0.435c0.096,0.241,0.224,0.522,0.385,0.844
			c0.128,0.289,0.313,0.684,0.553,1.182c0.241,0.499,0.501,1.053,0.782,1.664c0.28,0.611,0.577,1.246,0.89,1.904
			c0.313,0.66,0.613,1.299,0.902,1.918c0.288,0.618,0.557,1.189,0.806,1.712c0.248,0.521,0.445,0.952,0.589,1.29v2.941
			c0,0.965,0.265,1.656,0.793,2.074c0.529,0.418,1.291,0.627,2.285,0.627v-0.145c-0.017-0.032-0.024-0.073-0.024-0.121v-0.337
			c0-0.161-0.004-0.362-0.012-0.604c-0.008-0.241-0.021-0.53-0.036-0.868v-3.448c0.144-0.321,0.344-0.751,0.601-1.29
			c0.256-0.538,0.533-1.121,0.83-1.748s0.602-1.278,0.914-1.954c0.313-0.675,0.614-1.317,0.902-1.929
			C41.368,68.682,41.632,68.122,41.873,67.616z M56.471,80.843c-0.064-0.145-0.129-0.297-0.192-0.458
			c-0.113-0.289-0.309-0.788-0.59-1.495s-0.605-1.52-0.974-2.436c-0.369-0.916-0.758-1.881-1.167-2.894
			c-0.409-1.013-0.798-1.978-1.167-2.894c-0.369-0.917-0.694-1.725-0.974-2.423c-0.281-0.7-0.478-1.194-0.589-1.483
			c-0.177-0.45-0.365-0.809-0.565-1.074c-0.201-0.265-0.397-0.47-0.59-0.614c-0.192-0.145-0.381-0.236-0.565-0.277
			c-0.185-0.04-0.357-0.061-0.517-0.061c-0.161,0-0.333,0.021-0.518,0.061c-0.184,0.041-0.373,0.133-0.564,0.277
			c-0.193,0.145-0.389,0.35-0.589,0.614c-0.201,0.266-0.389,0.624-0.565,1.074c-0.112,0.289-0.313,0.783-0.601,1.483
			c-0.289,0.698-0.613,1.506-0.974,2.423c-0.361,0.916-0.746,1.881-1.155,2.894c-0.409,1.013-0.798,1.978-1.167,2.894
			s-0.694,1.729-0.974,2.436c-0.281,0.707-0.477,1.206-0.589,1.495c-0.081,0.161-0.149,0.313-0.205,0.458s-0.108,0.282-0.156,0.41
			c-0.065,0.145-0.121,0.29-0.169,0.435c0.481,0.128,0.938,0.168,1.372,0.12c0.368-0.032,0.737-0.145,1.105-0.338
			c0.369-0.192,0.666-0.547,0.891-1.061c0.096-0.226,0.272-0.668,0.529-1.327c0.256-0.658,0.561-1.431,0.914-2.314h6.831
			c0.353,0.884,0.658,1.656,0.914,2.314c0.257,0.659,0.433,1.102,0.529,1.327c0.208,0.514,0.501,0.868,0.878,1.061
			c0.376,0.193,0.749,0.306,1.119,0.338c0.433,0.048,0.89,0.008,1.371-0.12c-0.048-0.145-0.105-0.29-0.168-0.435
			C56.591,81.125,56.535,80.987,56.471,80.843z M46.081,74.381c0.321-0.804,0.625-1.588,0.915-2.352
			c0.288-0.763,0.553-1.45,0.793-2.062c0.272-0.708,0.537-1.383,0.793-2.025c0.225,0.643,0.481,1.317,0.77,2.025
			c0.224,0.611,0.489,1.299,0.793,2.062c0.304,0.764,0.617,1.548,0.938,2.352H46.081z M66.056,79.336
			c-0.329,0.008-0.694,0.012-1.095,0.012c-0.866,0-1.559-0.092-2.08-0.277c-0.521-0.185-0.922-0.494-1.203-0.928
			c-0.281-0.435-0.465-1.005-0.554-1.713c-0.088-0.707-0.132-1.583-0.132-2.628l-0.048-6.125c0-1.881-0.979-2.822-2.934-2.822
			c0.015,0.098,0.032,0.242,0.048,0.435c0.015,0.177,0.024,0.415,0.024,0.712s0.008,0.688,0.024,1.17v6.486
			c0,1.527,0.096,2.809,0.289,3.846c0.192,1.037,0.533,1.869,1.021,2.496c0.489,0.627,1.151,1.072,1.984,1.338
			c0.834,0.266,1.892,0.398,3.175,0.398c0.528,0,0.981-0.076,1.358-0.229c0.377-0.152,0.689-0.341,0.938-0.566
			c0.248-0.225,0.433-0.479,0.553-0.76s0.18-0.551,0.18-0.808v-0.145c-0.208,0.032-0.449,0.056-0.721,0.072
			C66.661,79.315,66.384,79.327,66.056,79.336z M83.456,66.905c-0.77-0.724-1.647-1.267-2.633-1.628
			c-0.987-0.361-2.009-0.543-3.067-0.543c-0.288,0-0.637,0.005-1.046,0.013c-0.408,0.008-0.781,0.036-1.119,0.084
			c-0.529,0.048-0.986,0.153-1.371,0.313c-0.657,0.258-1.146,0.684-1.467,1.278c-0.336,0.627-0.505,1.487-0.505,2.58L72.2,77.732
			c0,0.563,0.044,1.053,0.133,1.471c0.088,0.418,0.22,0.788,0.396,1.109c0.32,0.579,0.801,0.997,1.443,1.254
			c0.207,0.08,0.424,0.148,0.648,0.205c0.225,0.056,0.465,0.101,0.723,0.132c0.336,0.032,0.713,0.053,1.129,0.062
			c0.418,0.007,0.762,0.012,1.035,0.012c1.059,0,2.084-0.186,3.078-0.555s1.876-0.917,2.646-1.64
			c0.771-0.725,1.387-1.624,1.853-2.701c0.465-1.077,0.697-2.322,0.697-3.737s-0.229-2.661-0.686-3.738
			C84.839,68.529,84.226,67.628,83.456,66.905z M82.362,76.479c-0.298,0.836-0.683,1.507-1.154,2.014
			c-0.475,0.506-1.012,0.867-1.612,1.085c-0.602,0.217-1.214,0.325-1.84,0.325c-0.24,0-0.509,0-0.806,0s-0.574-0.036-0.83-0.108
			s-0.473-0.188-0.649-0.35c-0.176-0.161-0.265-0.401-0.265-0.724V67.99c0-0.321,0.089-0.563,0.265-0.724
			c0.177-0.16,0.394-0.276,0.649-0.35c0.256-0.072,0.533-0.108,0.83-0.108s0.565,0,0.806,0c0.626,0,1.238,0.104,1.84,0.313
			c0.601,0.209,1.138,0.566,1.612,1.073c0.472,0.506,0.856,1.178,1.154,2.014c0.296,0.836,0.445,1.881,0.445,3.135
			C82.808,74.597,82.658,75.643,82.362,76.479z M100.557,79.722c-0.209-0.298-0.401-0.631-0.577-1.001
			c-0.24-0.482-0.461-0.956-0.662-1.423c-0.2-0.466-0.4-0.896-0.602-1.29c-0.2-0.394-0.429-0.731-0.686-1.013
			c-0.256-0.281-0.568-0.485-0.938-0.614c1.074-0.322,1.896-0.853,2.465-1.592c0.569-0.739,0.87-1.584,0.902-2.532
			c0.031-0.676-0.061-1.286-0.276-1.833c-0.217-0.546-0.514-1.032-0.89-1.458c-0.377-0.426-0.814-0.784-1.312-1.073
			c-0.497-0.29-1.021-0.526-1.575-0.712c-0.553-0.185-1.111-0.313-1.672-0.386s-1.09-0.092-1.587-0.061
			c-0.77,0.049-1.483,0.142-2.141,0.278c-0.657,0.136-1.222,0.361-1.695,0.674c-0.474,0.314-0.847,0.729-1.118,1.242
			c-0.273,0.515-0.409,1.157-0.409,1.93v10.199c0,0.966,0.256,1.652,0.77,2.063c0.513,0.41,1.267,0.615,2.261,0.615
			c-0.016-0.097-0.032-0.241-0.049-0.435c-0.016-0.176-0.027-0.413-0.035-0.711c-0.008-0.297-0.012-0.695-0.012-1.194v-4.87
			c0.256,0.048,0.504,0.096,0.745,0.145c0.208,0.032,0.413,0.068,0.614,0.108c0.199,0.04,0.355,0.068,0.469,0.084
			c0.08,0.033,0.164,0.057,0.252,0.072c0.088,0.017,0.181,0.041,0.277,0.072c0.561,0.161,1.033,0.374,1.418,0.64
			s0.713,0.655,0.986,1.169c0.465,0.917,0.878,1.681,1.238,2.292c0.361,0.61,0.701,1.101,1.022,1.47
			c0.32,0.37,0.642,0.644,0.962,0.82c0.321,0.177,0.674,0.29,1.059,0.338c0.336,0.048,0.625,0.048,0.866,0
			c0.239-0.048,0.448-0.112,0.624-0.192c0.178-0.098,0.338-0.218,0.481-0.362c-0.208-0.193-0.409-0.418-0.601-0.676
			C100.957,80.281,100.765,80.02,100.557,79.722z M96.419,72.234c-0.576,0.402-1.37,0.603-2.381,0.603
			c-0.369,0-0.745-0.02-1.13-0.06c-0.385-0.041-0.737-0.085-1.059-0.133c-0.385-0.064-0.762-0.137-1.13-0.218
			c0-0.096,0-0.292,0-0.59s-0.004-0.623-0.012-0.978c-0.009-0.353-0.013-0.702-0.013-1.048c0-0.347,0-0.624,0-0.832
			c0-0.21,0.04-0.418,0.12-0.628c0.08-0.208,0.213-0.397,0.396-0.566c0.186-0.169,0.434-0.313,0.746-0.434
			c0.313-0.121,0.709-0.205,1.19-0.254c0.53-0.048,1.066-0.02,1.611,0.085s1.026,0.281,1.443,0.53s0.745,0.587,0.985,1.013
			c0.241,0.426,0.33,0.938,0.266,1.531C97.341,71.173,96.997,71.833,96.419,72.234z M103.346,67.652v11.743
			c-0.017,0.482-0.024,0.877-0.024,1.182c0,0.306-0.008,0.548-0.023,0.724c-0.016,0.193-0.033,0.338-0.048,0.435
			c0.978,0,1.724-0.209,2.236-0.627s0.77-1.109,0.77-2.074l0.048-11.743c0-0.482,0.004-0.872,0.012-1.17
			c0.008-0.297,0.021-0.534,0.037-0.711c0.016-0.193,0.031-0.338,0.047-0.435c-0.993,0-1.751,0.205-2.271,0.615
			C103.606,66.001,103.346,66.688,103.346,67.652z M121.288,65.084c-0.338,0.121-0.646,0.307-0.926,0.555
			c-0.281,0.25-0.51,0.583-0.686,1.001c-0.033,0.064-0.117,0.27-0.252,0.615c-0.138,0.346-0.306,0.78-0.506,1.302
			c-0.201,0.522-0.422,1.106-0.661,1.749c-0.241,0.643-0.489,1.294-0.746,1.953c-0.593,1.56-1.259,3.304-1.996,5.232
			c-0.754-1.929-1.427-3.673-2.021-5.232c-0.256-0.659-0.505-1.311-0.746-1.953c-0.24-0.643-0.461-1.227-0.661-1.749
			c-0.2-0.521-0.368-0.956-0.505-1.302s-0.213-0.551-0.229-0.615c-0.176-0.418-0.405-0.751-0.686-1.001
			c-0.28-0.248-0.59-0.434-0.926-0.555c-0.336-0.12-0.701-0.184-1.094-0.193c-0.393-0.007-0.782,0.021-1.167,0.085l6.662,16.76
			c0.384,0.128,0.777,0.168,1.179,0.12c0.32-0.032,0.666-0.145,1.034-0.338c0.368-0.192,0.688-0.546,0.962-1.061
			c0.128-0.241,0.316-0.647,0.565-1.218c0.248-0.57,0.528-1.241,0.842-2.014c0.313-0.771,0.649-1.607,1.01-2.507
			c0.36-0.9,0.718-1.81,1.07-2.726c0.834-2.122,1.739-4.461,2.718-7.018c-0.385-0.063-0.77-0.092-1.154-0.085
			C121.985,64.9,121.624,64.964,121.288,65.084z M135.862,79.228h-0.049c-0.127,0.016-0.477,0.04-1.045,0.072
			c-0.57,0.032-1.376,0.048-2.418,0.048c-0.883,0-1.639-0.088-2.273-0.266c-0.633-0.176-1.146-0.473-1.539-0.892
			c-0.393-0.418-0.677-0.984-0.854-1.7c-0.177-0.715-0.248-1.611-0.216-2.688h3.632c0.736,0,1.307-0.217,1.707-0.651
			c0.4-0.434,0.602-1.013,0.602-1.735h-5.916l-0.072-2.943c0-0.176,0.007-0.333,0.023-0.47c0.016-0.137,0.057-0.244,0.12-0.325
			c0.048-0.081,0.12-0.145,0.217-0.192c0.048-0.032,0.104-0.057,0.168-0.073c0.064-0.016,0.145-0.031,0.241-0.048h4.088
			c0.369,0,0.733-0.016,1.094-0.049c0.361-0.031,0.702-0.128,1.023-0.289c0.32-0.192,0.568-0.441,0.745-0.747
			c0.192-0.306,0.288-0.731,0.288-1.278v-0.146h-0.144h-0.048c-0.129,0.018-0.418,0.041-0.866,0.073s-1.187,0.048-2.213,0.048
			h-2.116c-0.401,0-0.786,0.009-1.154,0.024c-0.369,0.017-0.723,0.04-1.059,0.072c-0.256,0.032-0.497,0.076-0.722,0.133
			s-0.44,0.125-0.649,0.205c-0.32,0.128-0.602,0.289-0.842,0.482c-0.24,0.192-0.449,0.45-0.625,0.771
			c-0.336,0.627-0.506,1.487-0.506,2.58v4.558c0,1.591,0.166,2.914,0.494,3.967s0.833,1.885,1.515,2.495
			c0.682,0.611,1.548,1.025,2.598,1.242c1.05,0.218,2.305,0.294,3.765,0.229c0.32-0.017,0.676-0.036,1.07-0.061
			c0.393-0.023,0.74-0.124,1.045-0.301c0.338-0.161,0.586-0.402,0.746-0.725c0.193-0.305,0.289-0.73,0.289-1.277v-0.169
			L135.862,79.228z M65.858,38.772c-0.539-0.769-1.036-1.63-1.492-2.587c-0.622-1.246-1.191-2.471-1.709-3.677
			c-0.519-1.204-1.036-2.315-1.554-3.334c-0.518-1.018-1.109-1.891-1.771-2.617c-0.663-0.728-1.472-1.257-2.424-1.59
			c2.776-0.831,4.9-2.202,6.372-4.113c1.471-1.911,2.248-4.092,2.331-6.544c0.083-1.745-0.156-3.323-0.715-4.737
			c-0.559-1.411-1.327-2.668-2.3-3.77c-0.974-1.101-2.104-2.025-3.388-2.773s-2.642-1.36-4.071-1.839
			c-1.43-0.477-2.87-0.811-4.32-0.997c-1.451-0.187-2.819-0.238-4.103-0.156C46.354,0.061,39.164,0,39.164,0
			s-0.004,6.638,6.491,6.287c0.335-0.055,0.683-0.104,1.058-0.142c1.367-0.124,2.755-0.051,4.164,0.219
			c1.409,0.271,2.652,0.728,3.73,1.371c1.077,0.645,1.927,1.518,2.549,2.618s0.849,2.42,0.684,3.957
			c-0.291,2.368-1.181,4.072-2.673,5.11c-1.492,1.039-3.543,1.559-6.154,1.559c-0.954,0-1.927-0.052-2.921-0.156
			c-0.152-0.016-5.033-0.256-5.033-0.256s-0.406,5.373,4.597,5.789c0.053,0.012,0.102,0.035,0.156,0.045
			c0.228,0.042,0.466,0.104,0.715,0.187c1.45,0.416,2.672,0.967,3.667,1.651c0.994,0.686,1.843,1.694,2.548,3.023
			c1.201,2.368,2.269,4.342,3.201,5.921c0.932,1.579,1.812,2.846,2.642,3.801c0.829,0.957,1.657,1.663,2.487,2.119
			c0.829,0.458,1.74,0.748,2.735,0.873c0.87,0.124,1.616,0.124,2.238,0c0.622-0.125,1.16-0.29,1.616-0.499
			c0.456-0.249,0.87-0.561,1.243-0.935c-0.539-0.498-1.057-1.08-1.554-1.745C66.894,40.217,66.396,39.541,65.858,38.772z
			 M95.435,36.091c0.934-1.766,1.408-3.828,1.408-6.13c0-2.301-0.467-4.362-1.385-6.126c-0.914-1.757-2.157-3.245-3.697-4.426
			c-1.527-1.171-3.292-2.061-5.244-2.646c-1.939-0.579-3.976-0.873-6.054-0.873c-0.319,0-0.683,0.002-1.072,0.007l-4.513-0.008
			l0.114,0.716c0.195,1.224,1.359,3.585,4.397,3.761h1.073c1.137,0,2.267,0.157,3.358,0.467c1.059,0.3,2.02,0.82,2.852,1.548
			c0.832,0.727,1.522,1.712,2.053,2.928c0.532,1.224,0.803,2.789,0.803,4.652c0,1.864-0.271,3.43-0.803,4.651
			c-0.529,1.217-1.221,2.202-2.053,2.929c-0.834,0.729-1.796,1.257-2.857,1.569c-1.09,0.32-2.219,0.483-3.353,0.483H79.39h-0.002
			c-2.308,0-3.423,1.043-3.951,1.917c-0.572,0.947-0.578,1.901-0.578,1.941v0.618l4.524-0.007c0.369,0.004,0.702,0.006,0.988,0.006
			c2.077,0,4.122-0.301,6.077-0.894c1.967-0.596,3.738-1.492,5.268-2.663C93.253,39.334,94.505,37.847,95.435,36.091z"/>
	</g>
</g>
</svg>
